<svg width="24" height="24" viewBox="0 0 24 24" fill="none" xmlns="http://www.w3.org/2000/svg">
<mask id="mask0_556_323" style="mask-type:alpha" maskUnits="userSpaceOnUse" x="0" y="0" width="24" height="24">
<rect width="24" height="24" fill="#D9D9D9"/>
</mask>
<g mask="url(#mask0_556_323)">
<path d="M10.8624 8.15364L6.19563 12.8206C5.96763 13.0485 5.70038 13.1592 5.39388 13.1529C5.08738 13.1466 4.82022 13.0295 4.59238 12.8016C4.38105 12.5736 4.27222 12.3064 4.26588 11.9999C4.25955 11.6934 4.3703 11.4261 4.59813 11.1981L11.1981 4.59814C11.3101 4.48631 11.4345 4.40456 11.5711 4.35289C11.7076 4.30122 11.8505 4.27539 11.9999 4.27539C12.1492 4.27539 12.2921 4.30122 12.4286 4.35289C12.5653 4.40456 12.6896 4.48631 12.8016 4.59814L19.4074 11.2041C19.6227 11.4195 19.7304 11.6826 19.7304 11.9934C19.7304 12.3042 19.6227 12.5736 19.4074 12.8016C19.1795 13.0295 18.9092 13.1434 18.5964 13.1434C18.2835 13.1434 18.0131 13.0295 17.7851 12.8016L13.1374 8.15364V19.0656C13.1374 19.3848 13.0276 19.6542 12.8081 19.8739C12.5885 20.0934 12.319 20.2031 11.9999 20.2031C11.6807 20.2031 11.4113 20.0934 11.1916 19.8739C10.9721 19.6542 10.8624 19.3848 10.8624 19.0656V8.15364Z" fill="white"/>
</g>
</svg>
