<svg width="36" height="36" viewBox="0 0 36 36" fill="none" xmlns="http://www.w3.org/2000/svg">
<path d="M0 10C0 4.47715 4.47715 0 10 0H26C31.5228 0 36 4.47715 36 10V26C36 31.5228 31.5228 36 26 36H10C4.47715 36 0 31.5228 0 26V10Z" fill="white"/>
<mask id="mask0_556_291" style="mask-type:alpha" maskUnits="userSpaceOnUse" x="6" y="6" width="24" height="24">
<rect x="6" y="6" width="24" height="24" fill="#D9D9D9"/>
</mask>
<g mask="url(#mask0_556_291)">
<path d="M18 10.0127C19.7637 10.0127 21.2985 10.582 22.6045 11.7217C23.9069 12.8582 24.6749 14.2801 24.9102 15.9873C24.5647 15.9884 24.2314 16.0265 23.9102 16.1006C23.5896 16.1746 23.2807 16.2766 22.9844 16.4072C22.8477 15.1614 22.3065 14.1139 21.3584 13.2656C20.4061 12.4136 19.2864 11.9873 18 11.9873C16.6134 11.9873 15.4315 12.4767 14.4541 13.4541C13.4797 14.4285 12.9903 15.6061 12.9873 16.9873H12.5C11.53 16.9873 10.7023 17.3309 10.0166 18.0166C9.33092 18.7023 8.9873 19.53 8.9873 20.5C8.9873 21.47 9.33092 22.2977 10.0166 22.9834C10.7023 23.6691 11.53 24.0127 12.5 24.0127H19.9873V25.9873H12.5C10.9866 25.9873 9.69373 25.4637 8.62109 24.416C7.54864 23.3685 7.01274 22.0884 7.0127 20.5752C7.0127 19.2779 7.40296 18.1219 8.18457 17.1074C8.9661 16.0931 9.98908 15.4448 11.2529 15.1621L11.2559 15.1758L11.2617 15.1533C11.6777 13.6226 12.51 12.3829 13.7578 11.4346C15.0055 10.4864 16.4195 10.0127 18 10.0127ZM25 18.0127C25.5467 18.0127 26.014 18.2073 26.4033 18.5967C26.7927 18.986 26.9873 19.4533 26.9873 20V21.0127H27C27.2802 21.0127 27.5149 21.1067 27.7041 21.2959C27.8933 21.4851 27.9873 21.7198 27.9873 22V25C27.9873 25.2802 27.8933 25.5149 27.7041 25.7041C27.5149 25.8933 27.2802 25.9873 27 25.9873H23C22.7198 25.9873 22.4851 25.8933 22.2959 25.7041C22.1067 25.5149 22.0127 25.2802 22.0127 25V22C22.0127 21.7198 22.1067 21.4851 22.2959 21.2959C22.4851 21.1067 22.7198 21.0127 23 21.0127H23.0127V20C23.0127 19.4533 23.2073 18.986 23.5967 18.5967C23.986 18.2073 24.4533 18.0127 25 18.0127ZM25 18.9873C24.7135 18.9873 24.4724 19.0842 24.2783 19.2783C24.0842 19.4724 23.9873 19.7135 23.9873 20V21.0127H26.0127V20C26.0127 19.7135 25.9158 19.4724 25.7217 19.2783C25.5276 19.0842 25.2865 18.9873 25 18.9873Z" fill="#155ADC" stroke="#0948DA" stroke-width="0.025"/>
</g>
</svg>
